<svg data-v-423bf9ae="" xmlns="http://www.w3.org/2000/svg" viewBox="0 0 564 107" class="iconLeft"><!----><!----><!----><g data-v-423bf9ae="" id="fe827239-0ade-48ee-a6f0-fea4210d5e3d" fill="#2F2849" transform="matrix(4.8,0,0,4.8,98.3683752655983,-47.74387207031249)"><path d="M8.50 26.50L8.19 27.13L5.42 27.13L5.42 25.91L3.84 27.16Q3.56 27.27 3.14 27.27L3.14 27.27Q1.90 27.27 1.36 26.66Q0.81 26.05 0.81 25.19L0.81 25.19Q0.81 24.68 1.16 24.19Q1.51 23.69 2.18 23.24L2.18 23.24L5.42 23.24L5.42 22.48Q5.42 20.85 3.67 20.85L3.67 20.85Q2.79 20.85 1.46 21.84L1.46 21.84L1.04 21.25L3.04 19.67Q3.68 19.53 4.44 19.53L4.44 19.53Q5.77 19.53 6.50 20.17Q7.24 20.82 7.24 22.04L7.24 22.04L7.24 26.01L8.50 26.50ZM3.64 25.94Q4.47 25.94 5.42 25.20L5.42 25.20L5.42 23.88L2.98 23.88Q2.81 24.09 2.74 24.30Q2.67 24.51 2.67 24.77L2.67 24.77Q2.67 25.26 2.94 25.60Q3.21 25.94 3.64 25.94L3.64 25.94ZM14.66 14.77Q15.06 14.77 15.59 14.85Q16.11 14.94 16.35 15.04L16.35 15.04L16.35 17.26L15.75 17.26Q15.40 16.69 14.90 16.36Q14.39 16.03 13.87 16.03L13.87 16.03Q13.26 16.03 12.94 16.58Q12.63 17.12 12.63 18.17L12.63 18.17L12.63 20.09L15.11 20.09L15.11 20.73L12.63 20.73L12.63 25.91L14.62 26.50L14.31 27.13L9.56 27.13L9.56 26.63L10.81 25.63L10.81 20.73L9.17 20.73L9.17 20.09L10.81 20.09L10.81 18.89Q10.81 17.79 11.40 16.85Q12.00 15.90 12.90 15.34Q13.80 14.77 14.66 14.77L14.66 14.77ZM24.86 26.52L24.54 27.15L21.78 27.15L21.78 22.47Q21.78 21.73 21.55 21.43Q21.31 21.13 20.72 21.13L20.72 21.13Q20.29 21.13 19.85 21.28Q19.42 21.43 18.84 21.87L18.84 21.87L18.84 26.05L20.10 26.52L19.78 27.15L15.78 27.15L15.78 26.64L17.02 25.65L17.02 21.84L15.78 21.10L15.78 20.59L18.27 19.40L18.76 21.18L20.69 19.64Q21.01 19.53 21.48 19.53L21.48 19.53Q22.46 19.53 23.03 20.11Q23.60 20.69 23.60 21.69L23.60 21.69L23.60 26.04L24.86 26.52ZM33.67 26.50L33.36 27.13L30.59 27.13L30.59 25.91L29.01 27.16Q28.73 27.27 28.31 27.27L28.31 27.27Q27.08 27.27 26.53 26.66Q25.98 26.05 25.98 25.19L25.98 25.19Q25.98 24.68 26.33 24.19Q26.68 23.69 27.36 23.24L27.36 23.24L30.59 23.24L30.59 22.48Q30.59 20.85 28.84 20.85L28.84 20.85Q27.96 20.85 26.63 21.84L26.63 21.84L26.21 21.25L28.21 19.67Q28.85 19.53 29.61 19.53L29.61 19.53Q30.94 19.53 31.68 20.17Q32.41 20.82 32.41 22.04L32.41 22.04L32.41 26.01L33.67 26.50ZM28.81 25.94Q29.64 25.94 30.59 25.20L30.59 25.20L30.59 23.88L28.15 23.88Q27.99 24.09 27.92 24.30Q27.85 24.51 27.85 24.77L27.85 24.77Q27.85 25.26 28.11 25.60Q28.38 25.94 28.81 25.94L28.81 25.94ZM43.82 26.52L43.50 27.15L40.74 27.15L40.74 22.47Q40.74 21.73 40.50 21.43Q40.26 21.13 39.68 21.13L39.68 21.13Q39.24 21.13 38.81 21.28Q38.37 21.43 37.80 21.87L37.80 21.87L37.80 26.05L39.06 26.52L38.74 27.15L34.73 27.15L34.73 26.64L35.98 25.65L35.98 21.84L34.73 21.10L34.73 20.59L37.23 19.40L37.72 21.18L39.65 19.64Q39.97 19.53 40.43 19.53L40.43 19.53Q41.41 19.53 41.99 20.11Q42.56 20.69 42.56 21.69L42.56 21.69L42.56 26.04L43.82 26.52ZM46.65 24.85Q47.11 24.85 47.40 25.18Q47.70 25.51 47.70 25.98L47.70 25.98Q47.70 26.32 47.49 26.62Q47.28 26.92 46.96 27.10Q46.63 27.27 46.33 27.27L46.33 27.27Q45.88 27.27 45.58 26.94Q45.29 26.61 45.29 26.14L45.29 26.14Q45.29 25.80 45.50 25.50Q45.71 25.20 46.03 25.03Q46.35 24.85 46.65 24.85L46.65 24.85ZM54.00 25.56Q54.00 25.20 53.58 24.89Q53.16 24.57 52.29 24.11L52.29 24.11Q51.55 23.72 51.11 23.44Q50.67 23.16 50.35 22.79Q50.04 22.41 50.04 21.97L50.04 21.97Q50.04 21.46 50.47 20.89Q50.90 20.31 51.54 19.92Q52.18 19.53 52.71 19.53L52.71 19.53Q53.37 19.53 54.24 19.69Q55.10 19.85 55.50 20.05L55.50 20.05L55.50 22.25L54.89 22.25Q54.46 21.42 53.89 20.95Q53.31 20.48 52.70 20.48L52.70 20.48Q52.29 20.48 52.05 20.70Q51.80 20.92 51.80 21.24L51.80 21.24Q51.80 21.64 52.23 21.97Q52.67 22.29 53.58 22.78L53.58 22.78Q54.29 23.14 54.73 23.42Q55.16 23.69 55.47 24.05Q55.78 24.40 55.78 24.84L55.78 24.84Q55.78 25.35 55.32 25.92Q54.87 26.49 54.22 26.88Q53.56 27.27 53.02 27.27L53.02 27.27Q52.32 27.27 51.35 27.10Q50.37 26.94 49.97 26.75L49.97 26.75L49.97 24.54L50.57 24.54Q51.04 25.38 51.70 25.85Q52.36 26.32 53.03 26.32L53.03 26.32Q53.47 26.32 53.73 26.10Q54.00 25.87 54.00 25.56L54.00 25.56ZM62.96 26.04L61.54 27.16Q61.19 27.27 60.69 27.27L60.69 27.27Q59.49 27.27 58.93 26.66Q58.38 26.05 58.38 24.78L58.38 24.78L58.38 20.73L56.87 20.73L56.87 20.13L59.60 17.00L60.20 17.00L60.20 20.09L62.72 20.09L62.72 20.73L60.20 20.73L60.20 24.89Q60.20 26.00 61.29 26.00L61.29 26.00Q61.59 26.00 61.85 25.88Q62.12 25.76 62.54 25.45L62.54 25.45L62.96 26.04ZM72.56 26.50L72.24 27.13L69.48 27.13L69.48 25.72L67.75 27.16Q67.48 27.27 66.96 27.27L66.96 27.27Q65.98 27.27 65.41 26.69Q64.83 26.11 64.83 25.12L64.83 25.12L64.83 21.84L63.59 21.11L63.59 20.61L66.05 19.43L66.65 19.43L66.65 24.35Q66.65 25.10 66.89 25.40Q67.13 25.70 67.72 25.70L67.72 25.70Q68.12 25.70 68.53 25.55Q68.94 25.40 69.48 24.96L69.48 24.96L69.48 21.84L68.24 21.11L68.24 20.61L70.70 19.43L71.30 19.43L71.30 26.04L72.56 26.50ZM82.63 26.50L82.31 27.13L79.55 27.13L79.55 26.12L78.23 27.16Q77.78 27.27 77.17 27.27L77.17 27.27Q76.24 27.27 75.51 26.79Q74.77 26.31 74.36 25.48Q73.95 24.65 73.95 23.65L73.95 23.65Q73.95 22.55 74.61 21.61Q75.28 20.66 76.29 20.10Q77.29 19.53 78.23 19.53L78.23 19.53Q78.95 19.53 79.55 19.95L79.55 19.95L79.55 17.22L78.30 16.35L78.30 15.85L80.77 14.91L81.37 14.91L81.37 26.04L82.63 26.50ZM77.92 25.94Q78.34 25.94 78.72 25.83Q79.10 25.72 79.56 25.41L79.56 25.41L79.56 22.32Q79.48 21.64 78.93 21.22Q78.37 20.80 77.42 20.80L77.42 20.80Q75.91 20.80 75.91 22.97L75.91 22.97Q75.91 24.25 76.43 25.10Q76.94 25.94 77.91 25.94L77.91 25.94L77.92 25.94ZM88.00 26.50L87.68 27.13L83.68 27.13L83.68 26.63L84.92 25.63L84.92 21.71L83.68 20.86L83.68 20.36L86.14 19.40L86.74 19.40L86.74 26.04L88.00 26.50ZM85.78 15.20Q86.24 15.20 86.53 15.53Q86.83 15.86 86.83 16.34L86.83 16.34Q86.83 16.67 86.62 16.98Q86.41 17.28 86.09 17.45Q85.76 17.63 85.46 17.63L85.46 17.63Q85.01 17.63 84.71 17.30Q84.42 16.98 84.42 16.49L84.42 16.49Q84.42 16.16 84.63 15.86Q84.84 15.55 85.16 15.38Q85.48 15.20 85.78 15.20L85.78 15.20ZM93.67 19.53Q94.63 19.53 95.38 20.01Q96.12 20.50 96.54 21.32Q96.96 22.15 96.96 23.16L96.96 23.16Q96.96 24.25 96.30 25.19Q95.63 26.14 94.63 26.71Q93.62 27.27 92.68 27.27L92.68 27.27Q91.74 27.27 90.99 26.79Q90.24 26.31 89.82 25.48Q89.39 24.65 89.39 23.65L89.39 23.65Q89.39 22.55 90.06 21.61Q90.72 20.66 91.73 20.10Q92.74 19.53 93.67 19.53L93.67 19.53ZM92.86 20.80Q91.35 20.80 91.35 22.97L91.35 22.97Q91.35 24.28 91.90 25.14Q92.46 26.01 93.49 26.01L93.49 26.01Q94.23 26.01 94.61 25.45Q94.99 24.89 94.99 23.81L94.99 23.81Q94.99 22.53 94.44 21.66Q93.88 20.80 92.86 20.80L92.86 20.80Z"></path></g><defs data-v-423bf9ae=""><linearGradient data-v-423bf9ae="" gradientTransform="rotate(25)" id="a33548cb-1b3c-49e5-a134-8deca996cac8" x1="0%" y1="0%" x2="100%" y2="0%"><stop data-v-423bf9ae="" offset="0%" style="stop-color: rgb(233, 142, 13); stop-opacity: 1;"></stop><stop data-v-423bf9ae="" offset="100%" style="stop-color: rgb(21, 54, 241); stop-opacity: 1;"></stop></linearGradient></defs><g data-v-423bf9ae="" id="41db36ec-2062-45fa-8ebc-15c48531d798" transform="matrix(1.0868111504448785,0,0,1.0868111504448785,-13.255261890115804,-0.23894260335429607)" stroke="none" fill="url(#a33548cb-1b3c-49e5-a134-8deca996cac8)"><g clip-rule="evenodd"><path d="M12.983 10.59l17.018 88.223-5.872-59.049 29.021-1.892-.054-9.883L64.549 1 53.622 18.977z"></path><path d="M59.389 54.548l5.16-53.541-8.74 39.716-19.612 1.045 1.57 20.462-7.766 36.583 12.057-39.899z"></path><path d="M62.8 67.182l.549-10.453-15.979 3.755-.032 11.797-17.337 26.532 21.68-27.616zM65.711 62.394l14.841-4.731 1.509-12.532-15.899 2.095zM72.07 44.502l10.988-1.417 1.581-10.278-8.079-.373L64.549 1l8.43 30.967z"></path><path d="M87.413 31.294l1.256-9.506-9.544-2.694L64.549 1l14.483 22.437-.422 7z"></path></g></g><!----></svg>